# xmcd CD database file
# Copyright (C) 1993-1998 Ti Kan
#
# Track frame offsets:
#     150
#     18457
#     32432
#     45197
#     58877
#     73317
#     84795
#     97940
#     113612
#     124977
#     139787
#
# Disc length: 2099 seconds
#
# Revision: 0
# Processed by: cddbd v1.4b41PL1 Copyright (c) Steve Scherf et al.
# Submitted via: Clarion 0.9.4
#
DISCID=8808310b
DTITLE=Merle Haggard - Serving 190 Proof
DYEAR=1900
DGENRE=
TTITLE0=Footlights
TTITLE1=Got Lonely Too Early This Morning
TTITLE2=Heaven Was A Drink Of Wine
TTITLE3=Driftwood
TTITLE4=I Can't Get Away
TTITLE5=Red Bandana
TTITLE6=My Own Kind Of Hat
TTITLE7=I Must Have Done Something Bad
TTITLE8=I Didn't Mean To Love You
TTITLE9=Sing a Family Song
TTITLE10=Roses In The Winter
EXTD=
EXTT0=
EXTT1=
EXTT2=
EXTT3=
EXTT4=
EXTT5=
EXTT6=
EXTT7=
EXTT8=
EXTT9=
EXTT10=
PLAYORDER=
